<?xml version="1.0" encoding="UTF-8"?>
<!DOCTYPE svg PUBLIC "-//W3C//DTD SVG 1.1//EN" "http://www.w3.org/Graphics/SVG/1.1/DTD/svg11.dtd">
<!-- Creator: CorelDRAW 2018 (64 Bit) -->
<svg xmlns="http://www.w3.org/2000/svg" xml:space="preserve" width="65mm" height="14.5mm" version="1.1" style="shape-rendering:geometricPrecision; text-rendering:geometricPrecision; image-rendering:optimizeQuality; fill-rule:evenodd; clip-rule:evenodd"
viewBox="0 0 6500 1450"
 xmlns:xlink="http://www.w3.org/1999/xlink">
 <defs>
  <style type="text/css">
   <![CDATA[
    .fil1 {fill:#2B2A29;fill-rule:nonzero}
    .fil0 {fill:#008DD2;fill-rule:nonzero}
   ]]>
  </style>
 </defs>
 <g id="Capa_x0020_1">
  <metadata id="CorelCorpID_0Corel-Layer"/>
  <g id="_2532717111568">
   <path class="fil0" d="M576.84 1126.86c15.81,0 41.77,-10.73 77.9,-32.18 36.12,-21.45 78.74,-50.23 127.84,-86.36 49.11,-36.12 103.29,-77.89 162.56,-125.3 59.27,-47.42 119.38,-97.09 180.34,-149.02 60.96,-51.92 121.92,-104.14 182.88,-156.63 60.96,-52.49 117.69,-102.45 170.18,-149.86 52.49,-47.41 99.34,-89.74 140.55,-127 41.2,-37.25 73.09,-66.6 95.67,-88.05 7.9,-7.9 17.22,-9.03 27.94,-3.39 10.72,5.65 20.04,14.96 27.94,27.94 7.9,12.98 12.7,27.94 14.39,44.88 1.7,16.93 -1.41,32.73 -9.31,47.41 -38.38,64.35 -82.41,136.88 -132.08,217.59 -49.67,80.72 -100.47,162.56 -152.4,245.53 -51.93,82.98 -103.01,163.13 -153.25,240.46 -50.23,77.33 -93.98,143.93 -131.23,199.81 -37.25,55.88 -66.32,97.37 -87.21,124.46 -20.88,27.09 -27.94,32.17 -21.16,15.24 -2.26,5.64 -7.9,4.52 -16.94,-3.39 -9.03,-7.9 -17.21,-20.6 -24.55,-38.1 -7.34,-17.49 -11.29,-39.23 -11.85,-65.19 -0.57,-25.96 7.05,-55.32 22.86,-88.05 18.06,-38.39 44.87,-81.28 80.43,-128.7 35.56,-47.41 74.51,-97.08 116.84,-149.01 42.33,-51.93 85.51,-105.27 129.54,-160.02 44.03,-54.75 84.1,-108.65 120.23,-161.71 -53.06,47.41 -111.2,96.24 -174.42,146.47 -63.21,50.24 -129.54,100.75 -198.96,151.55 -69.43,50.8 -140.83,100.48 -214.21,149.02 -73.38,48.54 -147.32,94.26 -221.82,137.16 -42.9,24.83 -77.62,35.56 -104.14,32.17 -26.53,-3.39 -47.42,-14.68 -62.66,-33.87 -15.24,-19.19 -25.68,-42.89 -31.32,-71.12 -5.65,-28.22 -8.47,-54.75 -8.47,-79.58 0,-82.41 3.67,-163.13 11.01,-242.15 7.33,-79.02 14.39,-160.87 21.16,-245.53 -14.67,25.96 -33.86,56.44 -57.57,91.44 -23.71,34.99 -49.11,72.53 -76.2,112.6 -27.09,40.08 -54.75,81.85 -82.97,125.31 -28.23,43.46 -55.32,85.8 -81.28,127 -25.97,41.2 -49.67,80.72 -71.12,118.53 -21.45,37.82 -37.82,70.84 -49.11,99.06 -3.39,7.91 -10.72,9.6 -22.01,5.08 -11.29,-4.51 -21.17,-15.24 -29.64,-32.17 -8.46,-16.93 -13.26,-40.08 -14.39,-69.43 -1.13,-29.35 7.9,-64.91 27.09,-106.68 15.81,-34.99 36.41,-74.78 61.81,-119.38 25.4,-44.59 52.49,-90.02 81.28,-136.31 28.79,-46.28 58.14,-92 88.05,-137.16 29.92,-45.15 57.86,-85.51 83.82,-121.07 25.97,-35.56 48.83,-64.63 68.58,-87.21 19.76,-22.58 33.59,-34.99 41.49,-37.25 5.64,-2.26 12.42,-1.69 20.32,1.69 7.9,3.39 14.67,9.03 20.32,16.94l-1.69 -228.6c0,-12.42 7.05,-20.04 21.16,-22.86 14.11,-2.83 30.2,0.56 48.26,10.16 18.06,9.59 34.43,25.4 49.11,47.41 14.67,22.01 23.14,51.08 25.4,87.21 1.13,24.83 -2.82,63.21 -11.85,115.14 -9.04,51.93 -20.04,109.79 -33.02,173.57 -12.99,63.78 -26.53,129.26 -40.64,196.42 -14.12,67.17 -25.12,128.7 -33.02,184.58 -7.91,55.88 -11.58,101.6 -11.01,137.16 0.56,35.56 8.75,53.34 24.55,53.34zm1485.06 -264.16c15.8,-14.68 28.5,-18.35 38.1,-11.01 9.59,7.34 6.49,20.6 -9.32,39.79 -9.03,10.16 -21.45,25.12 -37.25,44.88 -15.81,19.75 -32.17,39.79 -49.11,60.11 -16.93,20.32 -33.86,38.38 -50.8,54.19 -16.93,15.8 -31.04,24.83 -42.33,27.09 -14.68,3.39 -35.28,1.13 -61.81,-6.77 -26.53,-7.91 -49.39,-19.76 -68.58,-35.56 -14.67,10.16 -28.78,20.03 -42.33,29.63 -13.55,9.6 -27.09,16.65 -40.64,21.17 -12.42,2.25 -27.66,1.69 -45.72,-1.7 -18.06,-3.38 -35.84,-9.87 -53.34,-19.47 -17.5,-9.6 -33.02,-21.17 -46.57,-34.71 -13.54,-13.55 -22.57,-29.35 -27.09,-47.42 -4.52,-19.19 0.28,-42.05 14.39,-68.58 14.11,-26.52 31.33,-51.64 51.65,-75.35 20.32,-23.71 41.49,-44.31 63.5,-61.81 22.01,-17.49 39.23,-26.81 51.65,-27.94 7.9,-1.12 17.78,-0.56 29.63,1.7 11.85,2.26 23.71,6.21 35.56,11.85 11.85,5.65 22.58,12.42 32.17,20.32 9.6,7.9 16.09,16.93 19.48,27.09 15.8,-13.54 29.35,-19.75 40.64,-18.62 9.03,2.26 18.62,5.08 28.78,8.46 10.16,3.39 19.48,7.34 27.94,11.86 8.47,4.51 15.52,10.16 21.17,16.93 5.64,6.77 7.9,14.11 6.77,22.01 0,9.04 -4.51,21.17 -13.54,36.41 -9.04,15.24 -18.63,30.76 -28.79,46.57 -10.16,15.8 -18.63,29.91 -25.4,42.33 -6.77,12.42 -7.9,20.32 -3.39,23.71 3.39,2.25 11.01,-0.29 22.86,-7.62 11.86,-7.34 26.25,-17.5 43.18,-30.48 16.94,-12.98 35.84,-27.94 56.73,-44.88 20.88,-16.93 41.49,-34.99 61.81,-54.18zm-425.03 162.56c12.42,6.77 27.94,3.1 46.57,-11.01 18.62,-14.11 36.4,-31.89 53.34,-53.34 16.93,-21.45 31.32,-43.46 43.18,-66.04 11.85,-22.58 17.78,-39.51 17.78,-50.8 -4.52,-10.16 -12.42,-12.98 -23.71,-8.47 -11.29,4.52 -23.71,12.99 -37.25,25.4 -13.55,12.42 -27.38,27.66 -41.49,45.72 -14.11,18.07 -26.25,35.28 -36.41,51.65 -10.16,16.37 -17.78,31.05 -22.86,44.03 -5.08,12.98 -4.79,20.6 0.85,22.86zm492.76 -187.96c4.52,4.51 11.29,6.49 20.32,5.92 9.03,-0.56 18.35,-2.54 27.94,-5.92 9.6,-3.39 18.63,-7.34 27.1,-11.86 8.46,-4.51 14.39,-8.46 17.78,-11.85 2.25,-4.51 8.18,-6.77 17.78,-6.77 9.59,0 19.47,1.97 29.63,5.92 10.16,3.96 19.47,9.6 27.94,16.94 8.47,7.34 13.83,16.08 16.09,26.24 1.13,9.04 -3.11,22.02 -12.7,38.95 -9.6,16.93 -19.76,33.59 -30.48,49.95 -10.73,16.37 -18.91,30.77 -24.56,43.18 -5.64,12.42 -3.95,18.63 5.08,18.63 9.03,0 22.3,-6.49 39.8,-19.47 17.49,-12.98 35.84,-27.94 55.03,-44.88 19.19,-16.93 37.25,-33.86 54.19,-50.8 16.93,-16.93 29.35,-29.35 37.25,-37.25 16.93,-14.67 31.33,-20.32 43.18,-16.93 11.85,3.38 10.44,15.24 -4.23,35.56 -6.78,10.16 -17.22,24.83 -31.33,44.02 -14.11,19.2 -30.2,39.52 -48.26,60.96 -18.06,21.45 -37.25,41.77 -57.57,60.96 -20.32,19.19 -40.64,32.74 -60.96,40.64 -9.03,3.39 -21.73,3.39 -38.1,0 -16.37,-3.38 -33.02,-9.03 -49.96,-16.93 -16.93,-7.9 -31.61,-18.34 -44.02,-31.33 -12.42,-12.98 -18.07,-27.94 -16.94,-44.87 0,-14.67 3.67,-30.2 11.01,-46.57 7.34,-16.36 15.52,-34.14 24.55,-53.34 -20.32,5.65 -41.2,6.21 -62.65,1.7 -21.45,-4.52 -38.95,-12.42 -52.49,-23.71 -13.55,-11.29 -21.45,-25.12 -23.71,-41.49 -2.26,-16.36 5.08,-34.14 22.01,-53.34 18.07,-21.44 35.85,-33.3 53.34,-35.56 17.5,-2.25 31.33,1.42 41.49,11.01 10.16,9.6 14.96,23.14 14.39,40.64 -0.56,17.5 -9.87,34.71 -27.94,51.65zm602.83 23.7c0,22.58 -8.75,42.62 -26.24,60.12 -17.5,17.5 -35.85,32.45 -55.04,44.87 -9.03,5.65 -18.91,8.47 -29.63,8.47 -10.72,0 -20.88,-1.7 -30.48,-5.08 -9.6,-3.39 -16.93,-8.19 -22.01,-14.4 -5.08,-6.2 -5.93,-13.26 -2.54,-21.16 3.38,-6.78 10.44,-14.96 21.16,-24.56 10.73,-9.59 21.17,-19.47 31.33,-29.63 10.16,-10.16 18.06,-19.47 23.71,-27.94 5.64,-8.47 5.64,-15.52 0,-21.17 -6.78,-6.77 -18.91,-1.41 -36.41,16.09 -17.5,17.5 -34.43,38.67 -50.8,63.5 -16.37,24.84 -29.07,49.67 -38.1,74.51 -9.03,24.83 -7.9,41.2 3.39,49.1 11.29,9.03 30.48,9.6 57.57,1.7 27.09,-7.91 56.16,-20.32 87.21,-37.26 31.04,-16.93 61.8,-36.12 92.28,-57.57 30.48,-21.45 54.75,-41.2 72.82,-59.27 10.16,-11.28 19.47,-18.9 27.94,-22.86 8.46,-3.95 14.95,-4.51 19.47,-1.69 4.51,2.82 5.93,8.19 4.23,16.09 -1.69,7.9 -7.62,18.62 -17.78,32.17 -12.42,14.68 -28.78,32.46 -49.1,53.34 -20.32,20.89 -42.06,41.2 -65.2,60.96 -23.14,19.76 -46.56,37.25 -70.27,52.49 -23.71,15.24 -44.59,25.12 -62.65,29.64 -15.81,4.51 -35.85,5.36 -60.12,2.54 -24.27,-2.83 -48.82,-8.75 -73.66,-17.78 -24.83,-9.03 -46.56,-21.45 -65.19,-37.26 -18.63,-15.8 -29.63,-34.43 -33.02,-55.88 -4.52,-16.93 -2.54,-37.25 5.93,-60.96 8.46,-23.7 20.32,-46.84 35.56,-69.42 15.24,-22.58 32.17,-43.18 50.8,-61.81 18.62,-18.63 34.71,-31.89 48.26,-39.79 13.54,-7.9 31.89,-9.32 55.03,-4.24 23.14,5.08 46,12.99 68.58,23.71 22.58,10.73 42.05,23.71 58.42,38.95 16.37,15.24 24.55,29.07 24.55,41.48z"/>
   <path class="fil1" d="M2988.16 1231.84c27.09,3.39 66.88,-8.46 119.38,-35.56 52.49,-27.09 114.01,-64.34 184.57,-111.76 70.55,-47.41 147.6,-102.72 231.14,-165.94 83.54,-63.22 169.33,-128.98 257.38,-197.28 88.06,-68.29 175.55,-136.87 262.47,-205.74 86.93,-68.86 169.62,-132.36 248.07,-190.49 78.46,-58.14 150.15,-108.94 215.06,-152.4 64.91,-43.47 118.81,-74.23 161.71,-92.29 27.09,-11.29 52.21,-14.96 75.35,-11.01 23.15,3.95 42.34,11.01 57.58,21.17 15.24,10.16 26.24,20.88 33.02,32.17 6.77,11.29 7.33,18.63 1.69,22.02 -142.24,76.76 -279.4,163.68 -411.48,260.77 -132.08,97.08 -263.59,196.42 -394.55,298.02 -130.95,101.6 -263.31,200.95 -397.08,298.03 -133.77,97.08 -272.91,183.44 -417.41,259.08 -60.96,32.74 -115.14,46.57 -162.56,41.49 -47.41,-5.08 -85.51,-23.43 -114.3,-55.04 -28.78,-31.61 -46.56,-73.37 -53.34,-125.3 -6.77,-51.93 0,-108.38 20.32,-169.34 10.16,-31.6 26.25,-69.7 48.26,-114.3 22.02,-44.59 46.57,-89.74 73.66,-135.46 27.1,-45.72 55.04,-88.9 83.82,-129.54 28.79,-40.64 55.6,-73.38 80.44,-98.22 18.06,-18.06 39.51,-29.06 64.34,-33.02 24.84,-3.95 46.85,-3.38 66.04,1.7 19.19,5.08 33.3,12.98 42.34,23.7 9.03,10.73 6.77,21.74 -6.78,33.02 -10.16,9.04 -25.12,25.97 -44.87,50.8 -19.76,24.84 -42.33,54.76 -67.73,89.75 -25.4,35 -51.93,73.66 -79.59,115.99 -27.66,42.34 -54.19,84.95 -79.59,127.85 -25.4,42.9 -48.54,84.67 -69.42,125.31 -20.89,40.64 -36.69,77.04 -47.42,109.22 -10.72,32.17 -14.95,58.42 -12.7,78.74 2.26,20.32 12.99,31.61 32.18,33.86zm1219.19 -531.7c-6.77,0 -15.24,-1.7 -25.4,-5.08 -10.16,-3.39 -19.47,-7.9 -27.94,-13.55 -8.46,-5.64 -15.24,-12.13 -20.32,-19.47 -5.08,-7.34 -7.05,-14.96 -5.92,-22.86 1.13,-6.78 4.23,-15.81 9.31,-27.1 5.08,-11.28 11.01,-22.29 17.78,-33.02 6.77,-10.72 14.39,-20.03 22.86,-27.94 8.47,-7.9 16.65,-12.98 24.55,-15.24 7.91,-1.12 17.5,0.29 28.79,4.24 11.29,3.95 22.01,9.59 32.17,16.93 10.16,7.34 18.35,15.24 24.56,23.71 6.2,8.46 8.74,15.52 7.62,21.16 0,6.78 -3.39,15.53 -10.16,26.25 -6.78,10.73 -14.68,21.17 -23.71,31.33 -9.03,10.16 -18.63,19.19 -28.79,27.09 -10.16,7.9 -18.62,12.42 -25.4,13.55zm64.35 165.94c22.58,-20.32 39.51,-26.52 50.8,-18.62 11.29,7.9 6.77,24.27 -13.55,49.1 -13.54,16.94 -29.91,34.72 -49.1,53.34 -19.19,18.63 -38.67,36.13 -58.42,52.5 -19.76,16.37 -38.1,30.48 -55.04,42.33 -16.93,11.85 -29.91,18.91 -38.94,21.17 -12.42,1.13 -26.81,-1.13 -43.18,-6.78 -16.37,-5.64 -32.18,-14.11 -47.42,-25.4 -15.24,-11.29 -27.65,-25.11 -37.25,-41.48 -9.6,-16.37 -13.26,-34.72 -11.01,-55.04 2.26,-19.19 7.62,-40.35 16.09,-63.5 8.47,-23.14 18.34,-44.3 29.63,-63.5 11.29,-19.19 22.58,-34.99 33.87,-47.41 11.29,-12.42 21.45,-18.06 30.48,-16.93 7.9,2.26 16.37,5.36 25.4,9.31 9.03,3.95 17.22,8.47 24.55,13.55 7.34,5.08 13.27,11 17.78,17.78 4.52,6.77 6.21,14.67 5.08,23.7 -1.13,9.04 -6.21,22.3 -15.24,39.8 -9.03,17.5 -18.06,35.28 -27.09,53.34 -9.03,18.06 -16.93,34.43 -23.71,49.1 -6.77,14.68 -7.9,23.71 -3.38,27.1 3.38,2.26 11.57,0.84 24.55,-4.24 12.98,-5.08 28.22,-12.7 45.72,-22.86 17.5,-10.16 36.69,-22.57 57.57,-37.25 20.89,-14.67 41.49,-31.04 61.81,-49.11zm343.75 -3.38c25.96,-15.81 41.77,-20.32 47.41,-13.55 5.65,6.77 -0.56,19.19 -18.62,37.25 -19.2,18.07 -39.52,36.41 -60.96,55.04 -21.45,18.62 -42.62,36.12 -63.5,52.49 -20.89,16.37 -41.49,30.2 -61.81,41.49 -20.32,11.29 -38.95,18.62 -55.88,22.01 -14.68,2.26 -31.61,2.54 -50.8,0.85 -19.19,-1.7 -37.25,-6.49 -54.19,-14.4 -16.93,-7.9 -31.04,-18.91 -42.33,-33.02 -11.29,-14.11 -16.93,-32.45 -16.93,-55.03 0,-13.55 10.44,-41.77 31.32,-84.67 20.89,-42.89 48.55,-92.56 82.98,-149.01 34.43,-56.44 73.37,-116.56 116.84,-180.34 43.46,-63.78 88.61,-123.89 135.46,-180.34 46.85,-56.44 92.85,-105.55 138.01,-147.32 45.15,-41.77 86.36,-68.86 123.61,-81.28 11.29,-4.51 27.1,-6.21 47.42,-5.08 20.32,1.13 40.07,4.8 59.26,11.01 19.19,6.21 35.84,15.24 49.96,27.09 14.11,11.86 21.16,25.68 21.16,41.49 0,18.06 -10.16,42.9 -30.48,74.51 -20.32,31.6 -47.41,66.88 -81.28,105.83 -33.86,38.94 -72.81,80.71 -116.84,125.3 -44.02,44.6 -90.31,88.9 -138.85,132.93 -48.54,44.03 -97.09,86.08 -145.63,126.15 -48.54,40.08 -93.69,75.36 -135.46,105.84 -12.42,16.93 -22.58,32.74 -30.48,47.41 -6.78,12.42 -12.14,24.55 -16.09,36.41 -3.95,11.85 -3.1,20.04 2.54,24.55 3.39,3.39 16.93,0 40.64,-10.16 23.71,-10.16 49.95,-22.58 78.74,-37.25 28.79,-14.68 57.01,-29.64 84.67,-44.88 27.65,-15.24 47.69,-25.68 60.11,-31.32zm342.05 -646.85c-4.51,-5.65 -14.96,-2.26 -31.32,10.16 -16.37,12.41 -36.41,31.04 -60.12,55.88 -23.7,24.83 -49.67,53.9 -77.89,87.2 -28.22,33.3 -57.01,67.45 -86.36,102.45 -68.86,83.54 -145.63,180.06 -230.29,289.56 14.67,-11.29 37.81,-31.05 69.42,-59.27 31.61,-28.22 66.32,-61.24 104.14,-99.06 37.82,-37.82 76.77,-77.33 116.84,-118.53 40.08,-41.21 75.64,-80.15 106.68,-116.84 31.05,-36.69 55.32,-68.86 72.82,-96.52 17.49,-27.66 22.86,-46 16.08,-55.03zm-44.03 645.15c0,22.58 -8.75,42.62 -26.24,60.12 -17.5,17.5 -35.85,32.45 -55.04,44.87 -9.03,5.65 -18.91,8.47 -29.63,8.47 -10.72,0 -20.88,-1.7 -30.48,-5.08 -9.6,-3.39 -16.93,-8.19 -22.01,-14.4 -5.08,-6.2 -5.93,-13.26 -2.54,-21.16 3.38,-6.78 10.44,-14.96 21.16,-24.56 10.73,-9.59 21.17,-19.47 31.33,-29.63 10.16,-10.16 18.06,-19.47 23.71,-27.94 5.64,-8.47 5.64,-15.52 0,-21.17 -6.78,-6.77 -18.91,-1.41 -36.41,16.09 -17.5,17.5 -34.43,38.67 -50.8,63.5 -16.37,24.84 -29.07,49.67 -38.1,74.51 -9.03,24.83 -7.9,41.2 3.39,49.1 11.29,9.03 30.48,9.6 57.57,1.7 27.09,-7.91 56.16,-20.32 87.21,-37.26 31.04,-16.93 61.8,-36.12 92.28,-57.57 30.48,-21.45 54.75,-41.2 72.82,-59.27 10.16,-11.28 19.47,-18.9 27.94,-22.86 8.46,-3.95 14.95,-4.51 19.47,-1.69 4.51,2.82 5.93,8.19 4.23,16.09 -1.69,7.9 -7.62,18.62 -17.78,32.17 -12.42,14.68 -28.78,32.46 -49.1,53.34 -20.32,20.89 -42.06,41.2 -65.2,60.96 -23.14,19.76 -46.56,37.25 -70.27,52.49 -23.71,15.24 -44.59,25.12 -62.65,29.64 -15.81,4.51 -35.85,5.36 -60.12,2.54 -24.27,-2.83 -48.82,-8.75 -73.66,-17.78 -24.83,-9.03 -46.56,-21.45 -65.19,-37.26 -18.63,-15.8 -29.63,-34.43 -33.02,-55.88 -4.52,-16.93 -2.54,-37.25 5.93,-60.96 8.46,-23.7 20.32,-46.84 35.56,-69.42 15.24,-22.58 32.17,-43.18 50.8,-61.81 18.62,-18.63 34.71,-31.89 48.26,-39.79 13.54,-7.9 31.89,-9.32 55.03,-4.24 23.14,5.08 46,12.99 68.58,23.71 22.58,10.73 42.05,23.71 58.42,38.95 16.37,15.24 24.55,29.07 24.55,41.48zm860.22 -628.22c5.64,16.93 -0.85,40.36 -19.48,70.27 -18.62,29.92 -44.87,63.5 -78.74,100.76 -33.86,37.25 -73.38,77.04 -118.53,119.37 -45.16,42.34 -92.57,84.67 -142.24,127 -49.67,42.34 -99.63,83.26 -149.86,122.77 -50.24,39.51 -96.24,74.51 -138.01,104.99 -10.16,18.06 -18.06,33.3 -23.7,45.72 -5.65,11.29 -9.32,20.32 -11.01,27.09 -1.69,6.77 0.28,7.34 5.93,1.69 6.77,-5.64 20.32,-17.78 40.64,-36.4 20.32,-18.63 42.33,-38.38 66.04,-59.27 23.7,-20.88 47.13,-40.64 70.27,-59.27 23.14,-18.62 41.49,-30.76 55.03,-36.4 12.42,-5.65 24.27,-6.21 35.56,-1.7 11.29,4.52 21.45,11.58 30.48,21.17 9.03,9.6 16.37,19.76 22.02,30.48 5.64,10.73 9.59,19.47 11.85,26.25 2.26,7.9 -3.67,20.88 -17.78,38.94 -14.11,18.07 -29.35,36.98 -45.72,56.73 -16.37,19.76 -30.48,37.54 -42.33,53.34 -11.86,15.8 -14.4,25.4 -7.62,28.79 4.51,1.13 13.82,-1.41 27.94,-7.62 14.11,-6.21 30.48,-14.68 49.1,-25.4 18.63,-10.73 38.67,-23.14 60.12,-37.26 21.44,-14.11 41.76,-27.65 60.96,-40.64 19.19,-12.98 36.12,-24.83 50.8,-35.56 14.67,-10.72 24.83,-18.9 30.48,-24.55 19.19,-14.67 34.71,-18.34 46.56,-11.01 11.86,7.34 12.14,18.35 0.85,33.02 -5.65,6.78 -17.22,19.76 -34.71,38.95 -17.5,19.19 -38.39,39.79 -62.66,61.81 -24.27,22.01 -50.23,42.33 -77.89,60.96 -27.66,18.62 -53.91,31.32 -78.74,38.1 -32.74,7.9 -60.68,8.18 -83.82,0.84 -23.14,-7.33 -41.49,-18.34 -55.03,-33.02 -13.55,-14.67 -22.86,-31.32 -27.94,-49.95 -5.08,-18.63 -4.8,-35.84 0.84,-51.65 -16.93,15.81 -33.3,29.92 -49.1,42.34 -13.55,12.42 -27.1,24.27 -40.64,35.56 -13.55,11.29 -24.27,20.32 -32.18,27.09 -7.9,7.9 -18.91,14.39 -33.02,19.47 -14.11,5.08 -28.78,7.91 -44.02,8.47 -15.24,0.56 -28.79,-1.69 -40.64,-6.77 -11.86,-5.08 -18.91,-14.4 -21.17,-27.94 -2.26,-13.55 6.21,-43.46 25.4,-89.75 19.19,-46.28 46,-100.47 80.43,-162.56 34.43,-62.09 74.23,-128.41 119.38,-198.97 45.16,-70.55 91.73,-136.87 139.7,-198.96 47.98,-62.09 95.39,-115.71 142.24,-160.87 46.85,-45.15 88.9,-73.94 126.16,-86.36 11.28,-4.51 25.68,-6.49 43.18,-5.92 17.49,0.56 34.71,4.51 51.64,11.85 16.94,7.34 33.02,18.63 48.26,33.87 15.24,15.24 26.81,35.27 34.72,60.11zm-66.04 -38.95c-4.52,-5.64 -14.96,-1.69 -31.33,11.86 -16.37,13.54 -36.69,33.02 -60.96,58.42 -24.27,25.4 -51.37,55.31 -81.28,89.74 -29.92,34.43 -60.11,70.27 -90.59,107.53 -71.12,86.92 -151.27,186.83 -240.46,299.72 13.55,-11.29 36.69,-31.89 69.43,-61.81 32.74,-29.91 68.86,-64.35 108.37,-103.29 39.51,-38.95 80.15,-80.15 121.92,-123.62 41.77,-43.46 78.74,-84.38 110.92,-122.76 32.17,-38.38 57.57,-71.69 76.2,-99.91 18.62,-28.22 24.55,-46.85 17.78,-55.88zm272.63 673.95c21.44,-15.81 33.3,-20.89 35.56,-15.24 2.25,5.64 -1.7,16.37 -11.86,32.17 -10.16,16.93 -24.55,36.69 -43.18,59.27 -18.62,22.58 -39.23,44.02 -61.8,64.34 -22.58,20.32 -46.29,38.39 -71.12,54.19 -24.84,15.8 -47.98,25.4 -69.43,28.79 -14.68,2.25 -33.87,-1.41 -57.57,-11.01 -23.71,-9.6 -46.57,-23.42 -68.58,-41.49 -22.02,-18.06 -40.36,-38.94 -55.04,-62.65 -14.67,-23.71 -19.75,-47.98 -15.24,-72.81 3.39,-20.32 11.86,-39.8 25.4,-58.42 13.55,-18.63 28.79,-35 45.72,-49.11 16.94,-14.11 34.15,-25.4 51.65,-33.87 17.5,-8.46 32.46,-12.7 44.87,-12.7 10.16,0 21.73,2.83 34.72,8.47 12.98,5.65 24.83,12.98 35.56,22.01 10.72,9.04 19.19,19.48 25.4,31.33 6.21,11.85 8.75,23.99 7.62,36.41 -2.26,12.42 -10.73,26.81 -25.4,43.18 -14.68,16.37 -31.05,32.45 -49.11,48.26 -20.32,18.06 -44.03,36.69 -71.12,55.88 24.84,6.77 64.63,-1.13 119.38,-23.71 54.75,-22.58 112.61,-57.01 173.57,-103.29zm-199.82 -32.18c-4.51,-3.38 -14.95,-0.84 -31.32,7.62 -16.37,8.47 -32.46,19.48 -48.26,33.02 -15.81,13.55 -29.07,28.51 -39.8,44.88 -10.72,16.37 -13.26,30.2 -7.62,41.48 6.78,-3.38 17.78,-11.28 33.02,-23.7 15.24,-12.42 30.48,-25.97 45.72,-40.64 15.24,-14.68 27.94,-27.94 38.1,-39.8 10.16,-11.85 13.55,-19.47 10.16,-22.86zm206.59 -40.64c9.03,-11.28 29.35,-18.62 60.96,-22.01 31.61,-3.39 65.19,-4.51 100.75,-3.39 35.56,1.13 68.3,4.24 98.21,9.32 29.92,5.08 47.7,10.44 53.34,16.08 12.42,11.29 16.65,24.56 12.7,39.8 -3.95,15.24 -15.52,27.94 -34.71,38.1 -11.29,5.64 -27.09,13.83 -47.41,24.55 -20.32,10.73 -40.64,22.3 -60.96,34.71 -23.71,13.55 -49.11,28.23 -76.2,44.03 4.51,5.65 9.03,10.73 13.54,15.24 4.52,4.52 9.32,8.47 14.4,11.85 5.08,3.39 10.44,5.65 16.08,6.78 9.03,2.25 25.97,-1.41 50.8,-11.01 24.84,-9.59 51.09,-20.88 78.74,-33.87 27.66,-12.98 54.47,-26.24 80.44,-39.79 25.96,-13.55 44.02,-23.71 54.18,-30.48 23.71,-12.42 39.51,-14.39 47.42,-5.93 7.9,8.47 3.95,19.48 -11.86,33.02 -9.03,6.78 -26.24,20.32 -51.64,40.64 -25.4,20.32 -53.06,41.49 -82.98,63.5 -29.91,22.02 -58.7,41.49 -86.36,58.42 -27.65,16.94 -47.13,25.4 -58.42,25.4 -11.29,0 -22.01,-3.95 -32.17,-11.85 -10.16,-7.9 -20.04,-17.22 -29.63,-27.94 -9.6,-10.72 -18.91,-21.17 -27.94,-31.33 -9.03,-10.16 -17.5,-18.06 -25.4,-23.7 -9.03,6.77 -18.63,15.52 -28.79,26.24 -10.16,10.73 -20.32,20.89 -30.48,30.48 -10.16,9.6 -20.6,18.07 -31.33,25.4 -10.72,7.34 -21.16,11.57 -31.32,12.7 -10.16,2.26 -19.19,0 -27.1,-6.77 -7.9,-6.77 -14.67,-15.24 -20.32,-25.4 -5.64,-10.16 -9.59,-20.88 -11.85,-32.17 -2.26,-11.29 -2.26,-20.32 0,-27.1 4.52,-10.16 15.52,-21.73 33.02,-34.71 17.5,-12.98 36.69,-24.55 57.57,-34.71 20.89,-10.16 40.93,-17.22 60.12,-21.17 19.19,-3.95 32.73,-1.97 40.64,5.93l111.76 -60.96c-24.84,6.77 -47.42,12.98 -67.74,18.62 -18.06,5.65 -35.84,11.29 -53.34,16.94 -17.49,5.64 -30.76,10.72 -39.79,15.24 -10.16,4.51 -17.78,1.69 -22.86,-8.47 -5.08,-10.16 -7.9,-22.86 -8.47,-38.1 -0.56,-15.24 0.29,-31.04 2.54,-47.41 2.26,-16.37 6.21,-27.94 11.86,-34.72z"/>
  </g>
 </g>
</svg>
